
<svg xmlns="http://www.w3.org/2000/svg" width="32" height="39" viewBox="0 0 32 39"><path fill="#1682C9" d="M6.098 25.81c-2.527-2.529-4.101-6.058-4.098-9.925-.003-3.87 1.571-7.396 4.098-9.93 2.526-2.536 6.042-4.111 9.902-4.11 3.855-.002 7.375 1.573 9.9 4.11 2.525 2.534 4.1 6.06 4.1 9.93 0 3.868-1.573 7.397-4.1 9.927-2.526 2.537-6.045 4.113-9.9 4.113h-.006c-3.856-.001-7.371-1.576-9.896-4.115m3.818-16.025c-1.562 1.568-2.517 3.706-2.519 6.1.002 2.391.958 4.531 2.519 6.102 1.566 1.561 3.698 2.521 6.084 2.523 2.383-.002 4.516-.963 6.082-2.523 1.559-1.57 2.518-3.711 2.52-6.102-.002-2.393-.961-4.53-2.52-6.1-1.566-1.565-3.7-2.526-6.082-2.526-2.386 0-4.518.96-6.084 2.526"/><rect x="5.633" y="31.74" fill="#3F9D38" width="20.734" height="5.414"/></svg>